# xmcd
#
# Track frame offsets:
#	300
#	18328
#	34597
#	48819
#	66436
#	82645
#	99465
#	130650
#	157755
#	175409
#	197434
#	219058
#
# Disc length: 3108 seconds
#
# Revision: 2
# Processed by: cddbd v1.5.2PL0 Copyright (c) Steve Scherf et al.
# Submitted via: audiograbber 1.83.01
#
DISCID=860c200c
DTITLE=CD Pool - Urban January 2011 CD1
DYEAR=2011
DGENRE=R&B
TTITLE0=Diddy-Dirty Money Ft Skylar Grey - Coming Home (Clean Version)
TTITLE1=Far East Movement Ft Ryan Tedder - Rocketeer
TTITLE2=Ruby Goe - Beat Breaking Boy (Single Version)
TTITLE3=Nelly Ft Akon and T-Pain - Move That Body
TTITLE4=Diddy-Dirty Money Ft Lil' Wayne - Strobe Lights
TTITLE5=Lethal Bizzle Ft Grime Allstars - Pow 2011 (Explicit Edit)
TTITLE6=AMS Vs Tim Deluxe - It Just Won't Do (DJ Naughty Extended Mix)
TTITLE7=Yasmin - On My Own (Burns ESM Remix)
TTITLE8=Jackie Jackson Ft Michael Jackson - We Know What's Going On (Radio Edit
TTITLE8=)
TTITLE9=Heston - Outside My Window
TTITLE10=Chaka Khan Ft Me'shell Ndege Ocello - Never Miss The Water (Lp Version
TTITLE10=)
TTITLE11=Jamelia - Thank You
EXTD=
EXTT0=
EXTT1=
EXTT2=
EXTT3=
EXTT4=
EXTT5=
EXTT6=
EXTT7=
EXTT8=
EXTT9=
EXTT10=
EXTT11=
PLAYORDER=
